<svg width="10" height="10" viewBox="0 0 13 13" fill="none" xmlns="http://www.w3.org/2000/svg">
<path d="M10.5962 10.5962H3.09619C2.89728 10.5962 2.70651 10.5172 2.56586 10.3765C2.42521 10.2359 2.34619 10.0451 2.34619 9.84619V4.59619C2.34619 4.39728 2.42521 4.20651 2.56586 4.06586C2.70651 3.92521 2.89728 3.84619 3.09619 3.84619H4.59619L5.34619 2.72119H8.34619L9.09619 3.84619H10.5962C10.7951 3.84619 10.9859 3.92521 11.1265 4.06586C11.2672 4.20651 11.3462 4.39728 11.3462 4.59619V9.84619C11.3462 10.0451 11.2672 10.2359 11.1265 10.3765C10.9859 10.5172 10.7951 10.5962 10.5962 10.5962Z" stroke="white" stroke-width="1.3" stroke-linecap="round" stroke-linejoin="round"/>
<path d="M6.84619 8.72119C7.77817 8.72119 8.53369 7.96567 8.53369 7.03369C8.53369 6.10171 7.77817 5.34619 6.84619 5.34619C5.91421 5.34619 5.15869 6.10171 5.15869 7.03369C5.15869 7.96567 5.91421 8.72119 6.84619 8.72119Z" stroke="white" stroke-width="1.3" stroke-linecap="round" stroke-linejoin="round"/>
</svg>
